# xmcd
#
# Track frame offsets: 
#        150
#        33118
#        43932
#        75385
#        94310
#        118065
#        140315
#        145682
#        164490
#        178277
#        208472
#        224134
#        232295
#        242888
#        248938
#        270526
#
# Disc length: 4142 seconds
#
# Revision: 2
# Processed by: cddbd v1.5.2PL0 Copyright (c) Steve Scherf et al.
# Submitted via: ExactAudioCopy v0.99pb4
#
DISCID=fc102c10
DTITLE=Marantz - High End Audiophile Test Demo CD
DYEAR=1900
DGENRE=
TTITLE0=Carmen Gomes - Let go get stoned.
TTITLE1=Blue Tab - Traditional.
TTITLE2=Beets Brothers - Body and soul.
TTITLE3=The Dream Machine - Traditional.
TTITLE4=L'imprevu Saxofoonkwartet - Pop Enre.
TTITLE5=Tony Roel Trio - Tango - Jalousie.
TTITLE6=Dick Broekema - On the air.
TTITLE7=De Straat - Improvisation.
TTITLE8=Royal Brassband from Arcen with Tambours - Royal Jubilee.
TTITLE9=The Resonans Quartett - Milonga del Angel.
TTITLE10=Annerieke Kaldeway, Harp - Traditional Arion.
TTITLE11=Ensemble - Water Music Gigue 1 en 2.
TTITLE12=Harp and Vocal - A Birthday Hansel Part 1.
TTITLE13=Djembe percussion group Madinka - Improvisation.
TTITLE14=Bernard Beeftink - Improvisation.
TTITLE15=String Quartett Jenufa - 2nd Strin Quartett opus 17 part 2.
EXTD=
EXTT0=
EXTT1=
EXTT2=
EXTT3=
EXTT4=
EXTT5=
EXTT6=
EXTT7=
EXTT8=
EXTT9=
EXTT10=
EXTT11=
EXTT12=
EXTT13=
EXTT14=
EXTT15=
PLAYORDER=
